# xmcd
#
# Track frame offsets:
# 150
# 17797
# 34165
# 50324
# 66804
# 85844
# 100988
# 117809
# 130911
# 150415
# 166534
# 182993
#
# Disc length: 2718 seconds
#
#
# Revision: 3
# Processed by: cddbd v1.5.1PL0 Copyright (c) Steve Scherf et al.
# Submitted via: FreeRIP 2.941 
#
DISCID=8f0a9c0c
DTITLE=Hush - A Lifetime
DYEAR=2004
DGENRE=Country
TTITLE0=If You Go Breaking My Heart
TTITLE1=Say A Little Prayer
TTITLE2=That Don't Make It Right
TTITLE3=Lovestruck
TTITLE4=A Lifetime
TTITLE5=Sometimes
TTITLE6=Come To My Rescue
TTITLE7=To A Better Place
TTITLE8=For How Long
TTITLE9=Why You Fly
TTITLE10=If I Was
TTITLE11=Drown
EXTD=
EXTT0=
EXTT1=
EXTT2=
EXTT3=
EXTT4=
EXTT5=
EXTT6=
EXTT7=
EXTT8=
EXTT9=
EXTT10=
EXTT11=
PLAYORDER=
